<?xml version="1.0" encoding="utf-8"?>
<!-- Generator: Adobe Illustrator 27.5.0, SVG Export Plug-In . SVG Version: 6.00 Build 0)  -->
<svg version="1.1" xmlns="http://www.w3.org/2000/svg" xmlns:xlink="http://www.w3.org/1999/xlink" x="0px" y="0px"
	 viewBox="0 0 500 500" style="enable-background:new 0 0 500 500;" xml:space="preserve">
<g id="BACKGROUND">
	<rect style="fill:#FFFFFF;" width="500" height="500"/>
</g>
<g id="OBJECTS_1_">
	<ellipse style="fill:#CCDDE6;" cx="82.412" cy="397.813" rx="56.02" ry="10.501"/>
	<ellipse style="fill:#CCDDE6;" cx="204.267" cy="397.813" rx="56.02" ry="10.501"/>
	<ellipse style="fill:#CCDDE6;" cx="317.956" cy="397.813" rx="56.02" ry="10.501"/>
	<ellipse style="fill:#CCDDE6;" cx="413.155" cy="397.813" rx="56.02" ry="10.501"/>
	<g>
		<g>
			<path style="fill:#1D3247;" d="M187.675,383.325l-3.227,4.859l-11.228,3.835c-1.58,0.54-2.641,2.024-2.641,3.693v0.077h29.619
				l0.626-6.232l-1.739-6.232"/>
			<path style="fill:#0F1924;" d="M199.957,386.453l-0.873-3.128h-11.41l-1.386,2.086
				C190.558,387.124,195.302,387.325,199.957,386.453z"/>
			<rect x="170.578" y="395.789" style="fill:#0F1924;" width="29.63" height="1.581"/>
			<polygon style="fill:#1D3247;" points="222.915,383.325 219.688,388.184 218.355,392.921 218.355,395.789 235.437,395.789 
				236.064,389.557 234.325,383.325 			"/>
			<path style="fill:#0F1924;" d="M235.394,387.155l-1.069-3.83h-11.41l-1.742,2.622
				C225.848,388.149,230.69,388.246,235.394,387.155z"/>
			<rect x="218.355" y="395.789" style="fill:#0F1924;" width="17.183" height="1.581"/>
			<g>
				<polygon style="fill:#1D3247;" points="203.145,319.538 204.038,359.62 200.938,383.325 193.797,384.061 186.734,383.325 
					183.557,315.83 				"/>
				<path style="fill:#2B4A69;" d="M182.517,297.358c0.451,8.065-0.078,13.584,1.451,21.62c1.441,7.546,9.295,11.818,15.949,6.732
					c0.392-0.294,0.774-0.627,1.166-0.99c1.431-1.352,1.695-2.793,1.989-4.635c1.725-10.672,1.137-18.797,1.666-29.577
					c0.421-8.536,0.833-17.091,1.254-25.626l0.01-0.049c0.039-0.833,0.078-1.666,0.118-2.499c0,0-23.049-8.281-23.784-8.545
					c0.47,0.343,0.382,7.409,0.412,7.987C183.385,273.633,181.85,285.49,182.517,297.358z"/>
				<polygon style="fill:#1D3247;" points="204.96,286.007 202.323,264.135 197.135,299.972 203.412,324.665 				"/>
				<polygon style="fill:#1D3247;" points="212.059,315.83 215.893,362.466 219.286,383.591 225.159,384.061 234.778,384.061 
					234.778,358.485 232.386,318.936 				"/>
				<path style="fill:#2B4A69;" d="M202.069,260.024c1.554,12.566,2.581,27.089,5.286,39.45c1.772,8.098,2.063,23.401,10.926,27.319
					c4.671,2.065,11.921-1.31,14.045-5.992c0.731-1.612,0.093-3.248-0.002-4.929c-1.252-21.987-0.896-40.756-1.343-62.777
					C230.981,253.095,202.069,260.024,202.069,260.024z"/>
				<polygon style="fill:#2B4A69;" points="237.685,168.068 251.493,221.15 235.873,229.704 226.575,185.076 				"/>
				<polygon style="fill:#2B4A69;" points="230.674,233.885 230.981,253.095 205.998,264.834 182.319,253.782 184.522,233.823 				
					"/>
				<path style="fill:#FFFFFF;" d="M184.827,224.933c-0.319,4.391-0.777,5.446-1.23,8.184h46.023l-0.038-0.564l-1.936-24.167
					l10.519-39.184l-21.276-11.38H195.15l-14.313,10.889c0,0,5.673,43.295,5.673,44.039
					C186.51,212.751,185.598,214.222,184.827,224.933z"/>
				<polygon style="fill:#FFB980;" points="196.823,159.161 204.11,169.036 216.162,159.786 215.537,156.454 213.678,146.397 
					199.054,146.397 197.135,157.406 				"/>
				<path style="fill:#FF7657;" d="M197.135,157.406c2.499,3.466,4.463,6.456,8.866,6.218c4.656-0.238,5.475-3.094,9.03-6.56
					c0.179-0.178,0.357-0.387,0.506-0.61l-1.859-10.056h-14.623L197.135,157.406z"/>
				<polygon style="fill:#ADC7C7;" points="217.973,161.831 213.996,172.706 205.602,167.522 215.308,174.788 				"/>
				<polygon style="fill:#ADC7C7;" points="191.307,161.831 195.212,172.512 203.412,167.298 193.924,174.556 				"/>
				<polygon style="fill:#1D3247;" points="230.094,203.169 234.117,186.869 235.873,229.704 				"/>
				<path style="fill:#5F98BA;" d="M231.759,191.865l-10.775,12.922l-8.582-1.177l8.582,8.615c0,0,6.837,10.318,6.925,11.433
					c0.088,1.116,0.595,5.704,0.595,5.704l-0.467-19.195L231.759,191.865z"/>
				<path style="fill:#1D3247;" d="M202.323,233.402c1.153,0.078,2.661,15.652,3.38,23.914c0.245,2.812,2.657,4.924,5.477,4.808
					l20.883-0.861l-3.743-27.291L202.323,233.402z"/>
				<polygon style="fill:#ADC7C7;" points="202.677,233.402 202.922,171.94 200.814,178.248 202.535,233.402 				"/>
				<rect x="189.671" y="229.362" style="fill:#C96125;" width="29.816" height="5.081"/>
				<path style="fill:#2B4A69;" d="M219.83,159.055l-4.522,15.733l-13.257,30.746l-0.158,26.257l5.776,25.042
					c0.651,2.523,3.06,4.054,5.464,3.472l20.826-5.036l-4.908-28.945l-0.071-20.79l9.354-33.893
					c0.514-1.862-0.393-3.833-2.094-4.548L219.83,159.055z"/>
				<g>
					<g>
						<g>
							<g>
								<path style="fill:#FFB980;" d="M205.877,120.154c9.782,0.29,11.178,11.178,11.023,20.338
									c-0.155,9.16-7.513,17.757-13.726,17.331c-5.495-0.377-9.326-6.655-10.173-15.73
									C192.202,133.542,190.196,119.688,205.877,120.154z"/>
							</g>
						</g>
						<g>
							<g>
								<path style="fill:#FFB980;" d="M216.61,139.384c0.169-0.933,0.266-1.907,1.101-2.55c2.775-2.138,3.51,1.743,3.201,3.682
									c-0.463,2.907-2.388,3.364-4.414,5.219c-2.109-1.858-0.286-4.198,0.102-6.295
									C216.603,139.422,216.607,139.403,216.61,139.384z"/>
							</g>
						</g>
						<path style="fill:#301E14;" d="M206.685,139.247c0,0.846,0.381,1.531,0.85,1.531c0.469,0,0.85-0.686,0.85-1.531
							s-0.381-1.531-0.85-1.531C207.066,137.716,206.685,138.401,206.685,139.247z"/>
						<path style="fill:#301E14;" d="M199.099,139.247c0,0.846-0.38,1.531-0.85,1.531c-0.469,0-0.85-0.686-0.85-1.531
							s0.381-1.531,0.85-1.531C198.718,137.716,199.099,138.401,199.099,139.247z"/>
						<path style="fill:#301E14;" d="M200.668,135.409c-0.62-0.785-1.59-1.236-2.594-1.152c-0.933,0.079-2.055,0.697-2.215,1.696
							c-0.066,0.41,0.336,0.828,0.747,0.574c0.519-0.319,0.917-0.765,1.566-0.803c0.606-0.036,1.071,0.294,1.426,0.753
							C200.192,137.243,201.267,136.167,200.668,135.409z"/>
						<path style="fill:#301E14;" d="M210.536,135.409c-0.62-0.785-1.59-1.236-2.594-1.152c-0.933,0.079-2.055,0.697-2.215,1.696
							c-0.066,0.41,0.336,0.828,0.747,0.574c0.519-0.319,0.917-0.765,1.566-0.803c0.606-0.036,1.071,0.294,1.426,0.753
							C210.061,137.243,211.136,136.167,210.536,135.409z"/>
						<path style="fill:#FF7657;" d="M200.247,144.073c-0.176,0.422-0.294,0.878-0.262,1.334c0.067,0.932,0.833,1.766,1.756,1.913
							c0.922,0.147,1.91-0.409,2.262-1.274c-0.637-0.313-1.406-0.259-2.043-0.574c-1.122-0.554-0.812-1.482-1.124-2.397
							C200.584,143.368,200.396,143.715,200.247,144.073z"/>
						<path style="fill:#FF7657;" d="M204.677,152.332c-0.467-0.066-0.91,0.129-1.388,0.092c-0.531-0.041-0.984-0.292-1.492-0.414
							c-0.216-0.052-0.452,0.195-0.309,0.402c0.35,0.506,0.943,0.724,1.536,0.806c0.558,0.077,1.385,0.1,1.793-0.355
							C204.959,152.707,204.932,152.368,204.677,152.332z"/>
						<path style="fill:#FFFFFF;" d="M199.494,149.293h6.888c0,0-0.958,2.302-3.444,2.224
							C200.452,151.439,201.502,150.761,199.494,149.293z"/>
					</g>
					<path style="fill:#4D3426;" d="M216.898,140.458l-0.364,1.377l-1.01,3.817l-1.192-9.441l-2.536-7.025l-17.043-0.151
						l-1.855,2.585l0,0c-1.83-3.049-2.634-6.605-2.294-10.145l0.23-2.387l4.07,2.261c0,0,4.928-1.507,10-1.356
						c5.072,0.151,12.747,0.603,13.281,2.562c0.534,1.959,0.218,6.481,0.218,6.481s2.887-0.754,2.958,0.754
						c0.071,1.507-1.286,8.832-1.286,8.832L216.898,140.458z"/>
					<path style="fill:#6E4A36;" d="M218.493,126.098c-0.003-1.271-0.071-2.665-0.31-3.544c-0.533-1.959-8.208-2.412-13.281-2.562
						c-3.038-0.09-6.015,0.413-7.922,0.833C202.85,125.579,211.129,127.444,218.493,126.098z"/>
				</g>
				<path style="fill:#1D3247;" d="M182.716,258.145l13.81,5.684c2.679,1.103,5.609-0.908,5.543-3.804l-0.579-25.581h-15.67
					L182.716,258.145z"/>
				<path style="fill:#1D3247;" d="M180.837,168.712l-21.186,42.072l3.957,4.571c3.602,4.161,10.114,3.979,13.478-0.378
					l12.585-16.298L180.837,168.712z"/>
				<path style="fill:#2B4A69;" d="M193.098,159.169l2.709,26.299l6.243,20.067l0.141,28.923l-1.733,21.533
					c-0.229,2.846-3.027,4.61-5.493,3.465l-13.979-6.489l3.461-22.437l-0.701-24.995l-2.908-36.823L193.098,159.169z"/>
				<path style="fill:#1D3247;" d="M184.127,235.891l8.955,2.721c0,0,1.25,9.541-2.654,9.491c-3.904-0.05-6.14-3.426-6.14-3.426
					s5.664,3.433,6.242,1.864c0.577-1.569,1.24-6.428,1.24-6.428L184.127,235.891z"/>
				<polygon style="fill:#1D3247;" points="202.05,205.535 203.412,238.382 199.991,225.146 				"/>
			</g>
			<path style="fill:#1D3247;" d="M226.575,234.922l-14.173,3.46c0,0,2.251,10.084,5.571,9.96c3.32-0.124,9.968-2.213,9.968-2.213
				s-8.729,2.279-9.968,0.76c-1.239-1.52-3.708-7.788-3.708-7.788L226.575,234.922z"/>
			<path style="fill:#FFD6D5;" d="M210.275,251.252l-3.783-15.051l-22.204,8.477c0,0,10.397,25.048,16.759,28.268l16.324-8.112
				L210.275,251.252z"/>
			<path style="fill:#FFB980;" d="M223.333,248.343l-7.024,9.279l-8.861,2.807c0,0-1.916-5.184-2.488-5.184
				c-0.572,0,5.316-3.994,5.316-3.994l2.127-1.963l-4.955,0.828l-0.798-1.774l4.385-2.214l8.452-1.235L223.333,248.343z"/>
			<polygon style="fill:#FFFFFF;" points="218.348,240.848 213.839,244.609 223.001,253.095 226.801,246.129 			"/>
			<polygon style="fill:#1D3247;" points="251.496,230.323 226.575,251.252 214.979,240.848 219.487,239.002 235.74,223.859 
				251.493,221.15 			"/>
			<polygon style="fill:#FFB980;" points="145.581,191.499 138.612,185.993 132.885,183.722 132.303,186.312 135.792,188.315 
				122.616,184.134 119.485,187.843 128.794,196.083 146.491,197.674 			"/>
			<polygon style="fill:#FFFFFF;" points="148.261,191.407 143.429,189.481 137.406,197.173 144.166,201.409 			"/>
			<path style="fill:#2B4A69;" d="M170.177,206.53l-23.66-17.188l-7.059,11.581l23.501,18.233c3.963,3.075,9.698,2.174,12.528-1.966
				l0.784-1.147L170.177,206.53z"/>
			<polygon style="fill:#FF7657;" points="135.792,188.315 130.978,193.182 137.873,189.766 			"/>
		</g>
		<path style="fill:#C96125;" d="M206.224,168.257c-0.225-0.225-0.429-0.475-0.622-0.735l-1.492,0.546c0,0-0.549-0.196-1.198-0.453
			c-0.054,0.048-0.105,0.099-0.161,0.146c-0.44,0.368-0.911,0.758-1.403,1.084l0.722,3.095h3.874l1.24-2.897
			C206.832,168.802,206.505,168.539,206.224,168.257z"/>
		<polygon style="fill:#C96125;" points="202.071,171.94 198.919,196.059 202.05,205.535 207.388,193.156 205.944,171.94 		"/>
	</g>
	<g>
		<g>
			<g>
				<path style="fill:#C96125;" d="M100.306,163.249c-4.286-10.146,1.297-24.435-7.566-32.193c-0.456-0.402-0.948-0.751-1.475-1.082
					c-0.823-0.51-1.699-0.939-2.576-1.359c-1.44-0.689-2.888-1.359-4.426-1.762c-3.416-0.894-6.689-0.304-9.551,1.225
					c-2.745,1.467-4.775,3.246-6.304,5.24c-3.257,4.247-4.307,9.597-5.114,14.764c-0.589,3.771-2.227,8.148-0.575,11.863
					c1.936,4.351,6.069,3.303,10.001,3.303c7.911,0,15.822,0,23.733,0C97.737,163.249,99.022,163.249,100.306,163.249z"/>
				<path style="fill:#BA4A1E;" d="M94.476,163.249c-1.178-3.905-1.445-8.083-0.742-12.101c0.406-2.32,1.124-4.696,0.56-6.982
					c-0.885-3.585-3.343-2.669-5.851-3.537c-2.509-0.868-3.537-3.565-6.61-3.634c-0.937-0.021-1.83,0.202-2.662,0.594
					c-1.595,0.75-2.971,2.117-4.027,3.569c-4.899,6.737-3.033,14.585-5.599,22.091H94.476z"/>
				<polygon style="fill:#FF7657;" points="72.101,383.887 75.962,392.815 72.101,392.815 64.038,384.941 65.062,381.81 				"/>
				<polygon style="fill:#1D3247;" points="64.307,380.898 72.78,391.139 75.599,390.761 78.514,392.787 83.198,394.625 
					82.342,396.89 70.074,394.936 62.893,386.951 61.15,391.564 60.036,391.143 60.106,385.898 				"/>
				<polygon style="fill:#FF7657;" points="64.738,381.669 79.168,349.044 83.491,366.02 72.101,383.887 				"/>
				<path style="fill:#FF7657;" d="M107.677,247.862c0,0-9.325,67.907-9.325,68.926c0,1.019-14.861,51.982-14.861,51.982
					l-4.323-19.726l-5.263-99.484L107.677,247.862z"/>
				<polygon style="fill:#FFB980;" points="87.814,384.941 86.638,369.186 79.168,369.186 79.168,384.941 				"/>
				<path style="fill:#FFB980;" d="M91.901,244.807v61.796c0,0-6.112,20.033-5.263,21.051c0.849,1.019,1.176,57.288,1.176,57.288
					s-8.646,0-8.646,0c-1.398-7.505-2.796-15.01-4.194-22.516c-1.787-9.593-5.901-19.014-5.877-28.895
					c0.018-7.764,3.184-15.197,5.488-22.515l-9.847-61.047l29.755-5.163"/>
				<path style="fill:#2B4A69;" d="M71.818,302.081c-0.332,0-3.789-30.533-3.926-31.765c-0.512-4.609-0.651-9.469-1.884-13.943
					c-1.613-5.852,1.062-11.369,2.509-16.929c1.727-6.637,3.454-13.274,5.181-19.911c0.056-0.217,0.122-0.449,0.298-0.588
					c0.189-0.151,0.453-0.153,0.696-0.147c9.372,0.211,18.744,0.421,28.116,0.632c2.821,14.059,6.352,27.303,4.613,41.708
					c-1.145,9.487-3.278,31.486-4.644,40.944C102.777,302.081,71.818,302.081,71.818,302.081z"/>
				<path style="fill:#FFFFFF;" d="M78.146,174.738c1.393,2.847,2.782,5.695,4.165,8.547c1.93,3.978,3.093,8.357,4.383,12.605
					c0.262,0.862,0.538,18.079-0.557,33.311l8.355,0.644l5.75-0.644c-1.57-16.269-3.449-35.74-3.449-35.741
					c-0.424-4.393-2.74-9.1-3.655-13.468c-0.688-3.287-0.506-8.537-2.965-11.059c-0.694-0.712-1.586-1.193-2.462-1.663
					c-3.623-1.943-8.418-3.837-12.414-1.865c-0.214,0.106-0.43,0.227-0.577,0.416c-0.185,0.237-0.238,0.549-0.257,0.849
					c-0.046,0.732,0.151,1.527,0.483,2.343C75.753,170.996,77.348,173.106,78.146,174.738z"/>
				<path style="fill:#1D3247;" d="M86.081,226.517c0.273-0.434,15.739,0,15.739,0v5.813l-17.36-1.118L86.081,226.517z"/>
				<path style="fill:#C96125;" d="M86.242,227.635c-0.903,12.662-1.779,24.27-1.779,24.27c-2.611-0.161-5.553-0.349-8.352-0.555
					c-0.34-0.027-0.689-0.054-1.028-0.08c-0.474-0.036-0.93-0.072-1.386-0.107c-0.358-0.036-0.706-0.063-1.046-0.089
					c-0.393-0.036-0.787-0.063-1.154-0.098c-0.393-0.036-0.778-0.072-1.154-0.107c-0.34-0.036-0.662-0.072-0.975-0.098
					c-0.322-0.036-0.626-0.063-0.921-0.098c-0.206-0.018-0.411-0.045-0.608-0.072c-0.349-0.045-0.671-0.08-0.966-0.125
					c-0.027,0-0.054,0-0.08-0.009c-0.241-0.036-0.465-0.063-0.662-0.098c-0.814-0.134-1.306-0.268-1.395-0.393
					c-0.224-0.331,0.465-3.747,1.475-8.191c0.054-0.197,0.098-0.402,0.143-0.617c0.25-1.037,0.501-2.128,0.769-3.246
					c0.036-0.17,0.08-0.34,0.125-0.51c0.25-1.064,0.519-2.137,0.778-3.21c0.08-0.349,0.17-0.697,0.25-1.046
					c0.42-1.69,0.84-3.362,1.234-4.927c0.08-0.331,0.161-0.653,0.242-0.966c0.009-0.054,0.027-0.098,0.036-0.143
					c0.098-0.358,0.188-0.715,0.268-1.055c0-0.009,0-0.009,0-0.018c0.152-0.581,0.295-1.136,0.429-1.663
					c0.045-0.179,0.089-0.358,0.134-0.528c0.063-0.232,0.125-0.474,0.179-0.698c0.036-0.143,0.072-0.286,0.107-0.429
					c0.188-0.724,0.358-1.368,0.492-1.905c0.054-0.179,0.089-0.349,0.125-0.501c0.009-0.045,0.018-0.081,0.036-0.125
					c0.036-0.134,0.072-0.25,0.09-0.358c0.143-0.536,0.224-0.832,0.224-0.832s-9.846-28.857-9.855-28.866
					c-1.234-3.631-3.55-9.694-2.084-13.02c1.923-4.364,8.558-8.808,13.789-10.981c2.978,5.982,14.022,28.187,14.433,29.528
					C88.407,196.497,87.316,212.79,86.242,227.635z"/>
				<polygon style="fill:#BA4A1E;" points="69.542,176.909 79.012,189.257 84.46,197.207 86.081,205.055 69.542,186.872 				"/>
				<polygon style="fill:#C96125;" points="109.903,204.029 134.684,201.255 134.684,209.021 111.255,215.563 106.142,215.563 				
					"/>
				<path style="fill:#BA4A1E;" d="M96.266,173.561c1.384,0.265,7.417,7.498,7.417,7.498l7.571,27.962l-5.112,6.542l-4.322-2.326
					l-3.503-23.831L96.266,173.561z"/>
				<path style="fill:#C96125;" d="M111.255,249.562l-8.916,1.333l-2.012-20.827l-3.532-36.611c0,0-7.369-26.69-7.378-26.72
					c0.47,1.702,3.84,3.378,5.053,4.441c3.134,2.748,4.951,6.772,6.904,10.385c0.689,1.27,4.722,6.626,4.364,8.075l-4.212,17.026
					l5.258,23.179L111.255,249.562z"/>
				<path style="fill:#BA4A1E;" d="M71.648,219.837c4.292,3.434,9.273,6.063,14.594,7.798c-0.903,12.662-1.779,24.27-1.779,24.27
					c-2.611-0.161-5.553-0.349-8.352-0.555c-0.34-0.027-0.689-0.054-1.028-0.08c-0.474-0.036-0.93-0.072-1.386-0.107
					c-0.358-0.036-0.706-0.063-1.046-0.089c-0.393-0.036-0.787-0.063-1.154-0.098c-0.393-0.036-0.778-0.072-1.154-0.107
					c-0.331-0.027-0.653-0.063-0.975-0.098c-0.322-0.036-0.626-0.063-0.921-0.098c-0.206-0.018-0.411-0.045-0.608-0.072
					c-0.349-0.045-0.671-0.08-0.966-0.125c-0.027,0-0.054,0-0.08-0.009c-0.241-0.027-0.465-0.063-0.662-0.098
					c-0.814-0.134-1.306-0.268-1.395-0.393c-0.224-0.331,0.465-3.747,1.475-8.191c0.054-0.206,0.098-0.402,0.143-0.617
					c0.25-1.037,0.501-2.128,0.769-3.246c0.036-0.17,0.08-0.34,0.125-0.51c0.25-1.064,0.519-2.137,0.778-3.21
					c0.08-0.349,0.17-0.697,0.25-1.046c0.42-1.69,0.84-3.362,1.234-4.927c0.08-0.331,0.161-0.653,0.242-0.966
					c0.009-0.054,0.027-0.098,0.036-0.143c0.09-0.358,0.179-0.715,0.268-1.055c0-0.009,0-0.009,0-0.018
					c0.152-0.581,0.295-1.136,0.429-1.663c0.045-0.179,0.089-0.358,0.134-0.528c0.063-0.232,0.125-0.474,0.179-0.698
					c0.036-0.143,0.072-0.286,0.107-0.429c0.188-0.724,0.349-1.368,0.492-1.905c0.054-0.179,0.089-0.349,0.125-0.501
					c0.009-0.045,0.018-0.081,0.036-0.125C71.595,220.061,71.63,219.944,71.648,219.837z"/>
				<path style="fill:#BA4A1E;" d="M111.255,249.562l-8.916,1.333l-2.012-20.827c2.155,0.072,4.31-0.009,6.456-0.223
					L111.255,249.562z"/>
				<polygon style="fill:#BA4A1E;" points="63.581,193.399 66.272,202.596 86.695,221.302 87.542,208.816 				"/>
				<path style="fill:#BA4A1E;" d="M144.521,186.947l-5.054-10.954l-19.314,37.558c0,0,16.218,0.144,16.358-0.314
					C136.65,212.779,144.521,186.947,144.521,186.947z"/>
				<path style="fill:#D6D6D6;" d="M144.521,186.947c0,0-12.118-2.416-18.006-8.272l-2.954,19.524l17.834-0.992L144.521,186.947z"/>
				<polygon style="fill:#BABABA;" points="125.22,185.605 125.488,183.885 144.521,186.947 				"/>
				<polygon style="fill:#D6D6D6;" points="144.521,186.947 122.179,184.531 115.112,214.445 136.142,214.445 				"/>
				<polygon style="fill:#C96125;" points="110.591,217.596 120.599,186.947 144.521,186.947 134.995,218.21 				"/>
				<path style="fill:#FFB980;" d="M107.677,204.31c0.924,0,4.8-3.13,4.8-3.13l5.401-2.319c0.376-0.161,0.771,0.184,0.662,0.578l0,0
					c-0.255,0.921-0.878,1.697-1.723,2.144l-1.21,0.641l4.024-0.447l3.405-2.501c0.256-0.188,0.604,0.06,0.51,0.363l-1.336,4.31
					c-0.224,0.721-0.655,1.361-1.241,1.838l-2.573,2.094c-0.743,0.605-1.672,0.935-2.629,0.935h-9.101L107.677,204.31z"/>
				<path style="fill:#FFFFFF;" d="M103.683,204.31c0.447,0.149,4.918-1.192,4.918-1.192v7.005l-4.918-1.102V204.31z"/>
				<path style="fill:#C96125;" d="M105.397,203.264c-4.777,0.519-11.306,1.01-16.12,0.085c-4.365-0.839-6.188-4.899-8.42-8.266
					c-3.672-5.539-7.106-11.479-10.535-17.015c-1.83-2.955-4.488-5.609-8.13-4.042c-3.566,1.535-3.865,7.103-3.049,10.382
					c2.034,8.176,10.378,16.241,16.011,22.152c3.108,3.261,6.331,7.637,11.343,6.489c2.924-0.67,7.636-0.445,10.56-1.115
					c2.506-0.574,5.877-0.424,8.34-1.425V203.264z"/>
				<polygon style="fill:#FFB980;" points="87.814,384.941 88.965,388.891 96.343,395.046 89.9,395.53 79.245,387.269 
					79.168,384.941 				"/>
				<polygon style="fill:#2B4A69;" points="79.245,387.269 90.791,393.853 93.294,392.503 97.054,394.204 102.718,395.94 
					102.718,398.362 89.602,398.362 80.062,393.431 80.062,398.362 78.871,398.362 77.083,393.431 				"/>
				<g>
					<g>
						<g>
							<path style="fill:#FFB980;" d="M88.305,162.712c0,0-0.125-7.476-0.125-7.476l-12.332,0.653l-0.304,6.868l-0.268,6.126
								c1.716,0.719,3.524,1.348,4.969,2.518c1.48,1.198,2.929,2.368,4.234,3.764c-0.052-0.056,2.09-3.074,2.293-3.396
								c0.575-0.91,0.981-1.94,1.383-2.935c0.343-0.849,0.248-1.371,0.213-2.266C88.318,165.284,88.327,163.996,88.305,162.712z"/>
							<path style="fill:#FF7657;" d="M75.544,162.757c3.085,2.128,7.082,3.881,9.452,2.727c1.297-0.626,2.388-1.619,3.309-2.772
								l-0.125-7.476l-12.332,0.653L75.544,162.757z"/>
						</g>
					</g>
					<g>
						<g>
							<path style="fill:#FFB980;" d="M84.753,127.362c8.551,0.271,8.865,10.039,8.719,18.256c-0.048,2.702-0.203,5.71-1.453,8.123
								c-1.403,2.708-3.266,5.896-6.123,7.278c-3.818,1.846-8.125-1.475-10.233-4.397c-2.031-2.816-2.463-6.331-3.174-9.637
								C70.87,139.462,71.045,126.926,84.753,127.362z"/>
						</g>
					</g>
					<g>
						<g>
							<path style="fill:#FFB980;" d="M72.254,145.861c0,0-0.417-3.32-3.005-2.135c-2.588,1.185,0.807,8.599,3.699,7.654
								C75.84,150.435,72.254,145.861,72.254,145.861z"/>
						</g>
					</g>
				</g>
				<path style="fill:#C96125;" d="M67.747,141.09c0.751,1.824,2.066,2.245,3.657,3.255c2.54,1.61,2.871,1.681,5.875,1.091
					c2.271-0.447,4.757-0.849,6.716-2.173c1.172-0.796,7.369-6.367,7.074-7.619c1.189,5.017,2.084,10.141,2.602,15.283
					c1.726-4.14,2.45-8.764,1.547-13.154c-0.34-1.69-0.957-3.318-1.806-4.82c-0.608-1.082-1.323-2.075-2.137-2.969
					c-0.009,0-0.009,0-0.009-0.009c-0.823-0.51-1.699-0.939-2.576-1.359c-1.44-0.689-2.888-1.359-4.426-1.762
					c-3.416-0.894-6.689-0.304-9.551,1.225c-2.745,1.467-4.775,3.246-6.304,5.24C67.174,135.653,66.808,138.782,67.747,141.09z"/>
				<polygon style="fill:#1D3247;" points="91.901,301.594 100.631,264.299 98.476,301.594 				"/>
			</g>
			<ellipse style="fill:#301E14;" cx="89.867" cy="146.873" rx="0.818" ry="1.475"/>
			<ellipse style="fill:#301E14;" cx="80.924" cy="146.873" rx="0.818" ry="1.475"/>
			<polygon style="fill:#FF7657;" points="84.46,153.178 86.249,151.249 85.354,147.778 87.702,152.367 85.358,154.072 			"/>
			<path style="fill:#FF7657;" d="M82.125,154.497c1.447,1.605,2.893,1.773,4.743,0.666c0.22-0.132,0.543,0.147,0.374,0.373
				c-1.395,1.868-4.706,1.545-5.756-0.546C81.289,154.599,81.799,154.135,82.125,154.497z"/>
			<path style="fill:#BA4A1E;" d="M88.205,143.308c0.923-0.919,2.701-0.779,3.696-0.044c0.165,0.122,0.278,0.314,0.214,0.526
				c-0.042,0.139-0.09,0.206-0.214,0.279c-0.141,0.083-0.329,0.087-0.47,0c-1.037-0.635-1.824-0.561-2.973-0.325
				C88.212,143.794,88.011,143.501,88.205,143.308z"/>
			<path style="fill:#BA4A1E;" d="M83.269,143.334c0.234,0.308-0.203,0.629-0.486,0.486c-0.581-0.293-1.085-0.524-1.756-0.424
				c-0.616,0.092-1.043,0.465-1.557,0.776c-0.224,0.135-0.522-0.089-0.446-0.343C79.526,142.16,82.318,142.083,83.269,143.334z"/>
			<path style="fill:#C97A25;" d="M65.028,140.008c1.519-4.778,4.168-8.975,9.685-11.928c2.861-1.531,6.134-2.118,9.548-1.226
				c1.539,0.402,2.993,1.072,4.427,1.758c0.653,0.312,1.305,0.635,1.937,0.99C82.26,135.218,75.61,146.39,65.028,140.008z"/>
		</g>
		<polygon style="fill:#FFFFFF;" points="73.723,166.137 75.465,164.57 81.437,171.914 79.072,176.485 		"/>
		<polygon style="fill:#FFFFFF;" points="87.065,171.446 88.392,165.851 90.175,167.414 89.417,174.651 		"/>
		<polygon style="fill:#ADC7C7;" points="79.072,176.485 81.437,173.869 84.46,175.177 81.437,171.914 		"/>
		<path style="fill:#ADC7C7;" d="M89.417,174.651l-2.352-3.204c0,0-1.794,2.493-1.971,2.753c-0.176,0.26-0.635,0.978-0.635,0.978
			l2.479-2.315L89.417,174.651z"/>
		<path style="fill:#FFB980;" d="M137.857,208.816l-2.289-1.584c-0.516-0.357-0.712-1.025-0.471-1.604l1.348-3.235
			c0.267-0.642,0.984-0.969,1.644-0.751l1.775,0.587c0,0,0.117-3.784,0.52-3.409c0.404,0.375,1.341,2.434,1.341,2.434l-0.559,5.366
			L137.857,208.816z"/>
	</g>
	<g>
		<path style="fill:#FF7657;" d="M387.37,206.28c-1.422-1.87-4.737-2.439-7.078-2.704c-1.947-0.22-3.848,0.558-5.754,1.014
			c-2.449,0.586-5.024,0.643-7.497,0.165c-0.292-0.057-0.638-0.105-0.848,0.105c-0.146,0.147-0.172,0.372-0.181,0.579
			c-0.286,7.04,8.376,8.309,13.642,8.63c0,0,9.093-1.289,9.168-1.3c-0.093,0.013-0.829-5.26-1-5.693
			C387.708,206.788,387.555,206.523,387.37,206.28z"/>
		<polygon style="fill:#FFFFFF;" points="393.365,205.095 386.21,203.811 384.081,214.859 395.086,215.988 		"/>
		<g id="POLYLINE_1139_">
			<path style="fill:#1D3247;" d="M400.797,204.285c2.846,1.902,6.277,0.52,8.613,2.228c1.075,0.786,1.762,1.981,2.417,3.14
				c0.872,1.542,1.744,3.083,2.616,4.625c-0.694,0.42-1.539,0.48-2.348,0.53c-5.473,0.337-13.64,0.675-19.113,1.012
				c-0.304,0.019-0.625,0.034-0.897-0.104c-0.29-0.148-0.47-0.443-0.63-0.726c-1.693-2.987-4.104-8.953-1.875-12.288
				C391.877,199.265,398.311,202.624,400.797,204.285z"/>
		</g>
		<g id="POLYLINE_1_">
			<path style="fill:#142230;" d="M426.533,385.716c-1.215,0.885-2.563,1.471-3.775,2.306c-1.349,0.929-2.551,1.89-4.066,2.567
				c-1.66,0.742-3.438,1.222-5.247,1.411c-1.145,0.119-2.938-0.384-3.891,0.337c-0.846,0.639-0.582,2.107-0.544,3.009
				c0.012,0.285,0.033,0.586,0.195,0.82c0.217,0.313,0.624,0.421,0.997,0.5c3.77,0.801,7.627,1.122,11.474,1.234
				c2.001,0.058,4.004,0.298,6.008,0.189c2.195-0.12,3.444-0.869,5.281-1.81c1.559-0.798,3.162-1.511,4.798-2.136
				c0.078,1.163-0.001,2.337-0.236,3.479c2.594-0.168,5.291,0.021,7.855-0.272c0.742-2.602,0.416-9.755,0.428-12.41L426.533,385.716
				z"/>
		</g>
		<g id="POLYLINE_1162_">
			<path style="fill:#2B4A69;" d="M446.67,270.13c-0.259,4.576-0.4,9.132-0.123,13.711c0.284,4.68,0.828,9.347,1.002,14.033
				c0.168,4.505-0.136,8.985,0.195,13.493c0.394,5.374,0.864,10.743,1.296,16.114c0.337,4.189,0.582,8.377,0.725,12.578
				c0.159,4.667,0.155,9.339,0.051,14.006c-0.105,4.701-0.409,9.37-0.776,14.056c-0.361,4.6-0.898,9.155-0.354,13.756
				c0.112,0.948,0.311,2.16-0.437,2.911c-0.655,0.658-1.76,0.864-2.629,1.026c-3.884,0.725-8.032,1.058-11.941,0.341
				c-0.909-0.166-1.808-0.387-2.694-0.649c-1.527,0.832-1.716-0.063-2.714-1.487c-0.998-1.424-1.243-3.226-1.46-4.952
				c-4.833-38.449-9.65-77.637-2.563-115.736c0.231-1.242,0.592-2.645,1.715-3.223c0.687-0.354,1.502-0.304,2.272-0.245
				c4.474,0.339,8.948,0.678,13.422,1.017c0.913,0.069,1.881,0.159,2.611,0.711c0.773,0.585,1.117,1.565,1.385,2.496
				C446.345,266.483,446.811,267.64,446.67,270.13z"/>
		</g>
		<path style="fill:#1D3247;" d="M434.826,301.594c0,0,4.131,64.001,3.175,65.736c-0.955,1.735-5.447,16.731-5.447,16.731
			l-6.888-2.25l-1.198-76.804L434.826,301.594z"/>
		<path style="fill:#1D3247;" d="M445.871,267.269c-1.638,3.123-15.74,52.534-15.74,52.534v-54.969l15.74-6.966V267.269z"/>
		<g id="POLYLINE_1138_">
			<path style="fill:#2B4A69;" d="M434.677,272.813c0.149,4.461,0.2,8.921,0.088,13.383c-0.113,4.502-0.496,8.983-0.84,13.472
				c-0.355,4.638-0.737,9.272-0.969,13.918c-0.221,4.424-0.34,8.857-0.276,13.286c0.072,4.999,0.27,9.997,0.422,14.995
				c0.127,4.142,0.103,8.295-0.163,12.431c-0.309,4.797-0.962,9.564-1.534,14.334c-0.482,4.02-0.925,8.066-0.842,12.12
				c0.035,1.68,0.437,3.356,0.432,5.025c-0.003,1.09-0.598,1.693-1.607,2.02c-1.42,0.459-3.015,0.444-4.487,0.4
				c-2.147-0.065-4.292-0.327-6.407-0.694c-2.086-0.363-4.159-0.829-6.184-1.452c-1.473-0.454-3.078-0.943-4.359-1.835
				c-2.164-1.505-0.813-3.98,0.115-5.833c0.786-1.568,1.673-3.146,2.094-4.862c0.307-1.254,0.283-2.546,0.202-3.826
				c-0.245-3.89-0.35-7.748-0.294-11.645c0.076-5.231,0.19-10.462,0.229-15.694c0.033-4.45-0.017-8.904-0.168-13.351
				c-0.164-4.838-0.456-9.669-0.761-14.5c-0.268-4.254-0.634-8.503-0.957-12.754c-0.37-4.874-0.775-9.746-1.11-14.622
				c-0.306-4.454-0.415-8.912-0.406-13.375c0.004-2.13,0.052-4.259,0.1-6.388c0.029-1.311,0.592-1.729,1.094-2.94
				c0.502-1.212,1.035-2.47,2.021-3.335c1.333-1.17,3.236-1.402,5.01-1.41c6.224-0.025,12.435,2.139,17.296,6.027
				c0.821,0.657,1.631,1.398,2.017,2.376C435.183,269.982,434.609,270.772,434.677,272.813z"/>
		</g>
		<path style="fill:#1D3247;" d="M408.735,270.918c1.36-0.527,25.943,1.894,25.943,1.894l11.194-5.543l-35.76-6.18L408.735,270.918z
			"/>
		<g id="POLYLINE_1145_">
			<path style="fill:#2B4A69;" d="M447.988,229.327c-0.638,7.6,0.386,15.165,1.267,22.684c0.575,4.86,3.207,13.314-3.378,15.255
				c-10.322,3.046-24.778,2.605-35.378,1.15c-8.67-1.186-5.013-18.48-4.941-24.238c0.045-3.782,0.126-7.555,0.234-11.329
				c0.144-5.336,0.332-10.673,0.521-16.009c0.117-3.378,0.243-6.756,0.35-10.134c0.35-10.861,5.777-20.762,10.924-30.051
				c2.183-3.953,2.92-8.678,5.103-12.721c0.647-1.195,1.357-2.363,2.309-3.333c1.24-1.276,2.821-2.156,4.429-2.902
				c2.497-1.168,5.273-2.075,7.96-1.5c2.021,0.431,3.495,1.374,4.716,2.596c1.671,1.671,2.884,3.854,4.402,5.92
				c7.385,10.035,9.289,20.411,7.124,32.701C451.752,208.044,448.896,218.546,447.988,229.327z"/>
		</g>
		<path style="fill:#1D3247;" d="M405.791,210.123c0,0,5.129-2.303,7.364-7.544c2.235-5.242,5.374-16.637,5.374-16.637
			s1.921,26.232,0.895,27.296C418.398,214.3,405.791,210.123,405.791,210.123z"/>
		<g id="POLYLINE_3_">
			<path style="fill:#1D3247;" d="M405.189,262.148c0.668,3.317,2.186,5.84,5.31,6.267c10.601,1.455,25.056,1.896,35.378-1.15
				c6.585-1.941,3.953-10.394,3.378-15.255c-0.375-3.199-0.768-6.407-1.056-9.622C439.134,255.657,421.856,263.474,405.189,262.148z
				"/>
		</g>
		<g id="POLYLINE_1141_">
			<path style="fill:#FFB980;" d="M434.279,153.551c-1.368-2.751-0.813-5.447-2.051-8.244c-0.961-2.171-1.921-4.342-2.882-6.514
				c-1.351-3.053-2.841-6.275-5.632-8.108c-1.547-1.016-3.376-1.515-5.198-1.84c-2.754-0.491-5.663-0.605-8.281,0.378
				c-5.2,1.952-5.688,7.546-5.664,12.427c0.007,1.335,0.862,2.565,1.049,3.87c0.303,2.118-0.005,4.564-0.12,6.697
				c0.686,0.16,1.438,0.006,2.006-0.41c-0.864,0.633,1.34,4.668,1.825,5.423c1.093,1.703,2.543,3.716,4.841,3.358
				c2.409-0.375,4.671,0.252,5.985,2.406"/>
		</g>
		<path style="fill:#FF7657;" d="M416.042,160.513c0,0,4.043,1.287,5.059-5.98c0,0,2.263,3.911,0.367,8.157L416.042,160.513z"/>
		<path style="fill:#301E14;" d="M407.016,145.266c0.368,0.727,0.993,1.15,1.397,0.945c0.403-0.204,0.432-0.959,0.064-1.685
			c-0.368-0.727-0.993-1.15-1.397-0.945C406.677,143.785,406.648,144.54,407.016,145.266z"/>
		<g id="POLYLINE_1149_">
			<path style="fill:#1D3247;" d="M410.855,385.716c-1.215,0.885-2.563,1.471-3.775,2.306c-1.349,0.929-2.551,1.89-4.066,2.567
				c-1.66,0.742-3.438,1.222-5.247,1.411c-1.145,0.119-2.938-0.384-3.891,0.337c-0.846,0.639-0.582,2.107-0.544,3.009
				c0.012,0.285,0.033,0.586,0.195,0.82c0.217,0.313,0.624,0.421,0.997,0.5c3.77,0.801,7.627,1.122,11.474,1.234
				c2.001,0.058,4.004,0.298,6.008,0.189c2.195-0.12,3.444-0.869,5.281-1.81c1.559-0.798,3.162-1.511,4.798-2.136
				c0.078,1.163-0.001,2.337-0.236,3.479c2.594-0.168,5.291,0.021,7.855-0.272c0.742-2.602,0.291-5.405,0.303-8.06L410.855,385.716z
				"/>
		</g>
		<g id="POLYLINE_1147_">
			<path style="fill:#2B4A69;" d="M440.931,159.328c-2.699,0.266-5.402-0.364-8.111,0.076c-1.3,0.211-2.524,0.674-3.625,1.398
				c-2.228,1.464-3.698,3.707-5.22,5.836c-0.804,1.124-1.659,2.215-2.619,3.211c-0.411,0.426-1.176,1.401-1.656,0.585
				c-0.536-0.911-0.294-2.524-0.129-3.498c0.264-1.563,0.952-2.982,1.896-4.246c3.309-4.429,8.237-7.806,13.671-8.934
				c1.46-0.303,3.045-0.505,4.181,0.661c0.745,0.764,1.293,1.728,1.872,2.616c0.285,0.436,1.145,1.476,0.67,2.007
				C441.629,159.268,441.238,159.297,440.931,159.328z"/>
		</g>
		<g id="POLYLINE_2_">
			<path style="fill:#1D3247;" d="M438.645,196.706c-4.278,8.809-6.071,32.776-17.077,36.069
				c-1.015,0.304-15.798,0.844-15.777,0.073c0.144-5.336,0.332-10.673,0.521-16.009c0.889-0.144,1.77-0.359,2.695-0.629
				c1.348-0.395,3.243-0.18,4.267-1.249c1.276-1.321,1.617-3.612,1.896-5.327c0.503-3.064,0.368-6.163,0.512-9.253
				c0.252-5.489,0.593-11.616,2.39-16.845c1.5-4.375,6.271-5.876,10.861-6.1c1.078-0.054,2.165-0.009,3.216,0.216
				c3.423,0.719,6.28,3.342,7.708,6.531C442.086,189.142,440.765,192.34,438.645,196.706z"/>
		</g>
		<polygon style="fill:#C96125;" points="371.763,223.826 361.881,194.052 386.175,184.531 390.929,222.322 372.961,229.844 		"/>
		<path style="fill:#FFB980;" d="M384.086,212.666l-5.716-2.772c0,0-5.22-2.489-5.717-1.678c-0.497,0.811,0.621,2.626,1.119,2.65
			c0.493,0.024,2.727,1.325,2.734,1.329l-7.457-1.085l-3.729-1.822c0,0-1.491,0.434-1.491,1.578s1.74,10.474,5.22,11.154
			c3.48,0.68,8.7,0,8.7,0l8.757-3.011L384.086,212.666z"/>
		<polygon style="fill:#FFFFFF;" points="389.513,210.614 382.244,210.707 382.244,221.958 393.263,220.985 		"/>
		<g id="POLYLINE_1146_">
			<path style="fill:#2B4A69;" d="M432.893,207.976c2.034-6.629,3.411-13.626,5.754-18.457c5.615-11.576-5.606-26.8-17.729-16.72
				c-8.482,7.053-4.013,22.649-6.248,32.145c-0.237,1.009-0.568,2.063-1.352,2.741c-0.598,0.517-1.386,0.747-2.155,0.943
				c-6.204,1.582-14.826,0.215-21.021-0.701c-0.631-0.093-1.289-0.184-1.894,0.016c-3.149,1.045-1.789,8.076-1.744,10.388
				c0.111,5.7,1.803,6.331,7.557,6.774c6.41,0.494,15.538,2.179,22.004,1.587C425.919,225.79,430.049,217.242,432.893,207.976z"/>
		</g>
		<g id="POLYLINE_1144_">
			<path style="fill:none;stroke:#FF7657;stroke-miterlimit:10;" d="M416.844,150.074c0.783,0.897,1.714,1.074,2.761,0.494
				c1.391-0.771,1.367-2.27,1.403-3.68c0.03-1.19,0.003-2.448-0.388-3.587c-0.785-2.292-2.888-2.526-4.579-1.036"/>
		</g>
		<g id="POLYLINE_1142_">
			<path style="fill:#9B8579;" d="M423.963,144.293c0.125,0.557,0.223,1.125,0.373,1.674c0.912,3.337,5.276,4.584,8.335,3.865
				c1.22-0.286,1.714-1.132,1.772-2.337c0.081-1.676-0.074-3.225,0.186-4.896c0.345-2.222,0.295-4.489,0.328-6.731
				c0.083-5.728-3.652-10.221-9.312-11.58c-6.757-1.622-17.593-0.883-20.25,6.679c-0.249,0.708-0.211,1.787,0.534,1.875
				c0.349,0.041,0.665-0.19,0.936-0.414c2.796-2.304,5.183-1.107,4.391,2.625c-0.429,2.023-3.309,3.879-0.429,5.449
				c1.201,0.655,2.371,1.009,2.783,2.434c0.177,0.611,0.274,2.961,1.427,2.713c1.378-0.309,1.292-4.792,4.471-5.123
				c1.5-0.156,3.058,0.638,3.812,1.945C423.644,143.033,423.82,143.656,423.963,144.293z"/>
		</g>
		<g id="POLYLINE_4_">
			<path style="fill:#8A766B;" d="M409.605,138.534c-0.145,0.695,0.094,1.353,1.221,1.968c1.201,0.655,2.371,1.009,2.783,2.434
				c0.177,0.611,0.274,2.961,1.427,2.713c1.378-0.309,1.292-4.792,4.471-5.123c1.5-0.156,3.058,0.638,3.812,1.945
				c0.325,0.563,0.501,1.185,0.643,1.822c0.125,0.557,0.223,1.126,0.373,1.674c0.912,3.337,5.276,4.584,8.335,3.865
				c1.22-0.286,1.714-1.132,1.772-2.337c0.081-1.676-0.074-3.225,0.186-4.896c0.345-2.222,0.295-4.489,0.328-6.731
				c0.017-1.175-0.135-2.294-0.422-3.348c-0.14,0.112-0.272,0.229-0.414,0.34C428.708,138.271,417.594,142.41,409.605,138.534z"/>
		</g>
		<path style="fill:#9B8579;" d="M408.067,141.04c-1.09-0.874-2.599-0.935-3.922-0.981c-0.254-0.009-0.445,0.178-0.526,0.401
			C402.234,144.283,406.621,141.1,408.067,141.04z"/>
		<path style="fill:#1D3247;" d="M441.861,159.04c0,0-11.286,3.386-15.896,7.097c0,0,9.489-8.219,15.226-9.104L441.861,159.04z"/>
		<path style="fill:#FF7657;" d="M413.414,152.874c-0.127-0.408-0.836-0.492-0.914,0c-0.082,0.515-0.075,0.99-0.5,1.368
			c-0.444,0.395-1.065,0.385-1.606,0.232c-0.454-0.128-0.694,0.496-0.313,0.742c0.752,0.486,1.751,0.404,2.462-0.134
			C413.168,154.611,413.659,153.662,413.414,152.874z"/>
	</g>
	<g id="POLYLINE_746_">
	</g>
	<g>
		<path style="fill:#BD8423;" d="M325.325,163.503c0.308,2.314,0.61,4.718-0.094,6.944c-1.119,3.54-4.472,5.814-7.603,7.809
			c-3.453-1.805-6.907-3.61-10.36-5.416c-0.878-0.459-1.802-0.961-2.295-1.819c-0.488-0.848-0.464-1.886-0.424-2.864
			c0.279-6.799,0.708-13.709,3.044-20.101c0.935-2.56,2.239-5.096,4.395-6.763c3.917-3.027,9.692-4.271,10.583,1.525
			C323.626,149.689,324.407,156.613,325.325,163.503z"/>
		<g>
			<g id="POLYLINE_744_">
				<path style="fill:#C96125;" d="M342.414,208.053c1.717,3.891,1.919,6.403-6.573,6.042c-0.753-0.032-1.548-0.12-2.153-0.571
					c-0.466-0.348-0.764-0.871-1.042-1.382c-7.145-13.163-9.098-27.768-11.91-42.242c2.944-0.35,5.126-0.054,7.955,1.348
					c1,0.496,1.957,1.11,2.646,2.005c6.871,8.918,5.072,19.769,8.754,29.582C340.804,204.73,341.73,206.501,342.414,208.053z"/>
			</g>
			<g id="POLYLINE_732_">
				<path style="fill:#2B4A69;" d="M342.895,391.985c-1.785-2.066-2.986-4.613-4.042-7.107c-1.211-2.86-2.109-5.608-2.133-8.745
					c-0.126-16.32,3.223-32.352,4.729-48.543c1.046-11.24,3.889-32.515-9.472-38.385c-3.432-1.508-7.394-0.432-10.966,0.705
					c-1.253,0.399-2.543,0.825-3.533,1.69c-3.737,3.263,3.709,18.239,4.932,22.454c0.801,2.76,1.787,5.541,2.341,8.367
					c1.119,5.716-0.896,13.061-0.789,18.966c0.233,12.881,3.69,25.649,0.876,38.448c-1.667,7.582,9.282,13.334,16.971,12.263
					C342.025,390.887,343.699,392.916,342.895,391.985z"/>
			</g>
			<g id="POLYLINE_733_">
				<path style="fill:#1D3247;" d="M322.302,398.302c0.006-0.998,0.013-1.996,0.02-2.994c0.023-3.474-0.529-7.09-0.056-10.538
					c0.15-1.091,1.17-5.525,2.866-4.878c0.375,0.143,0.645,0.641,0.854,0.955c0.548,0.825,1.038,1.691,1.55,2.539
					c0.822,1.36,1.668,2.713,2.651,3.965c1.232,1.568,2.725,2.95,4.569,3.756c4.607,2.013,9.93-0.301,14.518,1.679
					c1.383,0.597,2.848,1.99,2.399,3.653c-0.526,1.949-3.782,1.719-5.255,1.725c-3.778,0.017-7.608,0.173-11.376-0.126
					c-2.449-0.194-4.058-1.255-5.91-2.86c0,1.042,0,2.084,0,3.126C326.856,398.302,324.578,398.302,322.302,398.302z"/>
			</g>
			<g id="POLYLINE_729_">
				<path style="fill:#2B4A69;" d="M318.315,392.038c-2.233-2.11-4.203-4.437-5.559-7.21c-1.389-2.84-2.24-5.919-2.992-8.978
					c-4.845-19.711-5.683-40.765-0.113-60.228c0.792-2.769,1.37-5.594,1.191-8.486c-0.099-1.607-0.326-3.202-0.31-4.815
					c0.016-1.615,0.214-3.229,0.494-4.818c0.161-0.916,0.389-1.787,0.427-2.706c-2.714-1.289-3.091-5.257-6.606-5.776
					c-1.329-0.196-2.661,0.238-3.935,0.666c-4.739,1.593-11.167,2.009-10.905,7.66c0.088,1.895,1.911,4.115,2.225,6.142
					c0.417,2.689-0.115,5.761-0.332,8.455c-0.909,11.252-0.819,23.463,0.981,34.994c1.736,11.119,7.005,21.953,7.255,33.137
					c0.144,6.427,6.372,11.112,12.303,13.59c1.231,0.514,2.593,0.935,3.882,0.595C317.61,393.921,319.284,392.953,318.315,392.038z"
					/>
			</g>
			<g id="POLYLINE_9_">
				<path style="fill:#1D3247;" d="M331.977,289.205c-3.432-1.508-7.394-0.432-10.966,0.705c-1.253,0.399-2.543,0.825-3.533,1.69
					c-1.726,1.507-1.065,5.513,0.265,9.803c7.821,0.097,15.738,0.76,23.592,1.593C339.955,297.471,337.217,291.508,331.977,289.205z
					"/>
			</g>
			<g id="POLYLINE_8_">
				<path style="fill:#1D3247;" d="M311.025,297.504c0.161-0.916,0.389-1.787,0.427-2.706c-2.714-1.289-3.091-5.257-6.606-5.776
					c-1.329-0.196-2.661,0.238-3.935,0.666c-4.739,1.593-11.167,2.009-10.905,7.66c0.088,1.895,1.911,4.115,2.225,6.142
					c0.099,0.638,0.141,1.297,0.15,1.968c5.871-1.857,11.954-2.968,18.164-3.547C310.589,300.432,310.77,298.958,311.025,297.504z"
					/>
			</g>
			<g id="POLYLINE_730_">
				<path style="fill:#1D3247;" d="M297.744,398.302c0.006-0.936,0.011-1.871,0.017-2.806c0.113,1.86-0.381-5.414-0.086-10.374
					c0.126-1.338,0.539-2.579,0.896-3.868c0.179-0.648,0.666-1.94,1.544-1.198c0.364,0.308,0.603,0.885,0.826,1.288
					c0.511,0.929,1.001,1.87,1.507,2.802c0.665,1.224,1.37,2.437,2.193,3.563c1.043,1.423,2.322,2.709,3.938,3.465
					c3.965,1.856,8.615-0.245,12.576,1.537c1.34,0.603,2.507,1.88,2.332,3.447c-0.216,1.94-2.655,1.964-4.136,1.997
					c-3.489,0.078-7.069,0.182-10.55-0.11c-2.281-0.191-3.725-1.282-5.351-2.87c0,1.042,0,2.084,0,3.126
					C301.548,398.302,299.646,398.302,297.744,398.302z"/>
			</g>
			<path style="fill:#BA4A1E;" d="M337.025,209.792c0,0-13.141-33.726-13.169-31.117c-0.027,2.609,0.997,31.585,1.54,33.906
				C325.94,214.901,337.025,209.792,337.025,209.792z"/>
			<g id="POLYLINE_741_">
				<path style="fill:#C9A025;" d="M307.359,141.123c-0.223,3.488-0.096,7.372-1.421,10.667c-1.169,2.908-2.39,5.292-2.593,8.585
					c-0.038,0.61-0.056,1.245-0.336,1.789c-0.759,1.474-2.811,1.45-4.464,1.582c-4.241,0.53-6.354,3.946-9.728,6.075
					c-1.784,1.126-3.47,1.12-5.296,1.832c-2.171,0.847-3.666,2.209-5.496,3.764c-0.023-2.673,0.615-5.35,1.843-7.725
					c1.672-3.234,4.356-5.819,6.388-8.84c2.447-3.637,3.203-8.191,3.984-12.417c0.769-4.159,0.504-8.978,2.089-12.901
					c1.131-2.8,3.325-5.016,5.888-6.551c1.137-0.681,7.351-1.992,7.56-2.995C304.597,129.665,307.736,135.236,307.359,141.123z"/>
			</g>
			<path style="fill:#BD8423;" d="M291.094,141.79c-1.215,6.19-1.908,12.706-4.839,17.062c-2.032,3.021-4.716,5.606-6.388,8.84
				c-1.723,3.333-2.62,8.247-1.257,11.84c2.094-3.966,6.02-6.584,9.871-8.882c2.227-1.329,4.488-2.619,6.556-4.19
				c2.035-1.546,3.131-1.798,5.368-2.569c2.842-0.98,2.652-2.438,3.119-5.092c0.433-2.459,1.488-4.707,2.412-7.007
				c0.416-1.035,0.679-2.132,0.864-3.253C300.889,148.332,295.362,146.307,291.094,141.79z"/>
			<path style="fill:#C96125;" d="M341.275,294.793c0,0-34.206,0.858-48.61,1c-1.679,0.019-3.085,0.019-4.141,0.009
				c-1.198,0-1.943-0.028-2.104-0.066c-0.009,0-0.019-0.009-0.028-0.009c1.302,0-1.538-25.498-2.566-35.243
				c-0.189-1.858-0.321-3.141-0.34-3.566c-0.811-15.924,1.915-31.819,0.906-47.752c-0.443-6.943-0.887-13.895-1.33-20.848
				l6.396-18.037l6.867-5.085l20.489,1.358l9.273,6.754l5.764,25.489l-0.207,15.084c0,0-0.047,3.198-0.047,3.207l-0.151,10.745
				l7.679,52.289L341.275,294.793z"/>
			<g id="POLYLINE_10_">
				<path style="fill:#BA4A1E;" d="M341.275,294.793c-6.971-0.434-13.971-0.17-20.952-0.038c-8.386,0.16-16.782,0.208-25.159,0.509
					c-2.179,0.085-4.349,0.33-6.509,0.528c-0.047,0-0.085,0.009-0.132,0.009c-1.198,0-1.943-0.028-2.104-0.066
					c-0.009,0-0.019-0.009-0.028-0.009c1.302,0-1.538-25.498-2.566-35.243c16.593,11.471,36.337,20.282,55.119,19.64
					L341.275,294.793z"/>
				<path style="fill:#BA4A1E;" d="M331.853,213.896c-15.38-0.806-31.571,1.839-45.879,5.478c0.151,2.287,0.223,4.609,0.142,6.99
					c-0.066,1.936-0.131,3.871-0.197,5.807c-0.006,0.185-0.017,0.368-0.025,0.553c13.588,1.448,27.176,2.736,40.764,6.732
					c-1.961-7.846,0.158-10.253,4.783-11.62c-0.166-0.83-0.339-1.657-0.503-2.487L331.853,213.896z"/>
			</g>
			<g id="POLYLINE_739_">
				<path style="fill:#C96125;" d="M321.002,176.738c1.344-0.493,1.398-1.629,0.988-2.811c-0.6-1.732-1.494-3.504-2.632-4.947
					c-1.064-1.349-2.56-2.467-3.943-3.463c-0.422-0.304-0.88-0.623-1.043,0.047c-0.188,0.771,0.072,1.713,0.1,2.491
					c0.067,1.867-0.249,3.821,0.134,5.664c0.313,1.506,0.783,2.147,1.377,3.566c0.248,0.592,0.525,1.21,1.042,1.59
					C318.041,179.623,320.838,177.989,321.002,176.738z"/>
			</g>
			<g id="POLYLINE_750_">
				<path style="fill:#C96125;" d="M276.675,181.004c3.061-6.372,7.244-9.185,11.785-2.168c1.648,2.547,2.497,5.535,2.974,8.531
					c1.27,7.975-0.008,16.335-3.602,23.566c-0.42,0.845-0.876,1.683-1.508,2.384c-2.681,2.978-9.559,3.22-13.246,5.81
					c-1.077,0.756-2.14,1.567-3.284,2.222c-0.453,0.259-1.176,0.71-1.727,0.514c-1.113-0.397-0.799-3.043-0.697-3.863
					C268.788,206.626,271.692,191.375,276.675,181.004z"/>
			</g>
			<g id="POLYLINE_737_">
				<path style="fill:#FFB980;" d="M324.281,140.345c-0.076,0.55-0.135,1.099-0.194,1.649c-0.381,3.813-0.389,7.61-1.226,11.415
					c-0.541,2.444-1.091,7.103-4.431,7.153c-3.255,0.042-5.006-1.421-5.319,3.086c-0.11,1.649,0.11,3.306-0.127,4.938
					c-0.059,0.397-0.161,0.829-0.448,1.108c-0.558,0.558-1.497,0.338-2.224,0.025c-2.63-1.116-4.896-2.892-6.697-5.082
					c-2.909-3.518-4.634-8.092-4.786-12.683c-0.228-6.993,2.85-13.842,7.593-19.008c0.304-0.33,0.617-0.651,0.93-0.964
					c0.727-0.727,1.539-1.446,2.537-1.674c2.038-0.457,4.109,1.065,6.122,1.243c2.012,0.178,4.262-0.702,6.172,0.389
					C325.423,133.775,324.704,137.25,324.281,140.345z"/>
			</g>
			<path style="fill:#FF7657;" d="M314.494,160.486l-7.879-1.937l6.481,8.553C313.096,167.103,313.635,163.128,314.494,160.486z"/>
			<g id="POLYLINE_736_">
				<path style="fill:#C96125;" d="M302.08,166.025c1.087,2.203,2.347,4.305,3.808,6.28c1.004,1.358,1.525,2.466,2.064,4.066
					c0.087,0.258,0.16,0.561,0.008,0.787c-0.133,0.199-0.393,0.263-0.63,0.291c-1.488,0.171-2.971-0.531-4.074-1.544
					c-1.104-1.013-1.892-2.316-2.665-3.599c-0.709-1.177-1.44-2.426-1.464-3.8C299.092,166.553,300.158,166.37,302.08,166.025z"/>
			</g>
			<polygon style="fill:#2B4A69;" points="283.329,226.324 281.344,168.31 321.953,175.392 322.702,232.33 			"/>
			<path style="fill:#1D3247;" d="M283.057,218.376l0.272,7.948l39.373,6.005l-0.241-18.325
				C309.312,214.883,296.047,215.622,283.057,218.376z"/>
			<g id="POLYLINE_745_">
				<path style="fill:#C96125;" d="M333.807,223.14c2.54,0.882,4.875,2.435,7.804,1.358c1.202-0.442,2.186-1.357,2.906-2.415
					c1.579-2.319,1.947-5.417,0.954-8.04c-1.686-4.458-4.54-5.099-8.447-4.251c-5.679,1.231-8.086,2.98-14.271,0.84
					c-1.551-0.537-3.713-0.895-4.447,0.573c-0.246,0.491-0.236,1.066-0.221,1.616c0.056,2.009,0.121,4.066,0.868,5.931
					c0.747,1.865,2.329,3.528,4.321,3.789c3.028,0.396,6.015-0.377,9.022,0.186C332.812,222.823,333.313,222.969,333.807,223.14z"/>
			</g>
			<g id="POLYLINE_7_">
				<path style="fill:#FF7657;" d="M322.754,210.632c-1.551-0.537-3.713-0.895-4.447,0.573c-0.246,0.491-0.236,1.066-0.221,1.616
					c0.056,2.009,0.121,4.066,0.868,5.931c0.747,1.865,2.329,3.528,4.321,3.789c3.028,0.396,6.015-0.377,9.022,0.185
					c0.515,0.096,1.016,0.242,1.51,0.414c0.097,0.034,0.194,0.07,0.29,0.106c-0.59-4.274-1.678-8.476-4.001-11.773
					C328.006,211.8,325.854,211.705,322.754,210.632z"/>
			</g>
			<g id="POLYLINE_749_">
				<path style="fill:#FFB980;" d="M326.313,219.087c-0.125-1.396-0.249-2.791-0.374-4.187c-0.071-0.798-0.151-1.622-0.543-2.32
					c-0.676-1.2-2.112-1.744-3.469-1.984c-1.651-0.291-4.572-0.704-6.223-0.134c-2.089,0.721-2.82,3.011-4.725,3.942
					c-0.504,0.246-1.081,0.284-1.64,0.318c-1.528,0.092-3.065,0.208-4.606,0.328c-0.25,2.588-0.157,5.161,0.273,7.655
					c5.309-0.575,10.597-0.446,16.374,0.035c0.291,0.024,0.628,0.076,0.773,0.329c0.125,0.219,0.05,0.49,0.008,0.739
					c-0.138,0.812,0.143,1.685,0.73,2.263C325.272,223.736,326.63,222.648,326.313,219.087z"/>
				<path style="fill:#C96125;" d="M306.633,214.377c-5.925,0.461-11.915,0.996-17.786,0.839c-2.924-0.078-5.364-0.935-7.84-0.669
					c-0.982,0.105-1.97,0.387-2.996,0.965c-3.646,2.052-7.253,4.177-10.879,6.264c-0.747,1.889,0.4,4.114,2.112,5.206
					s3.832,1.299,5.862,1.35c6.635,0.167,13.258-1.016,19.603-2.965c4.205-1.292,8.221-2.084,12.226-2.518
					C306.46,220.089,306.356,217.241,306.633,214.377z"/>
			</g>
			<g id="POLYLINE_5_">
				<path style="fill:#FF7657;" d="M308.981,151.535c0.042,0.387-2.826-0.721-3.113-0.933c-3.295-2.428-1.797-11.021,2.191-7.608
					C308.058,142.994,308.98,151.533,308.981,151.535z"/>
			</g>
			<g id="POLYLINE_742_">
				<path style="fill:#FFB980;" d="M309.826,150.689c0.042,0.387-2.826-0.721-3.113-0.933c-3.295-2.428-1.798-11.021,2.191-7.608
					C308.904,142.148,309.826,150.687,309.826,150.689z"/>
			</g>
			<g id="POLYLINE_740_">
				<path style="fill:#C9A025;" d="M303.794,124.66c2.193-0.7,4.283-1.134,6.574-0.776c3.186,0.498,6.372,1.747,9.177,3.316
					c4.066,2.275,8.215,10.196,5.601,14.668c-2.439-0.675-4.119-1.723-5.85-3.593c-1.563-1.689-3.193-3.507-3.606-5.771
					c-0.68,2.835-2.296,5.065-3.417,7.681c-1.267,2.956-1.896,6.245-2.232,9.428c-0.692,6.54-0.759,15.12,1.312,21.358
					c-5.935-0.476-12.03-2.14-17.884-3.297c0.046-4.857-0.541-9.888,1.095-14.532c1.642-4.661,2.043-9.278,2.576-14.19
					c0.435-4.011-2.707-6.729,0.135-10.92C298.646,126.012,301.468,125.403,303.794,124.66z"/>
			</g>
			<g id="POLYLINE_6_">
				<path style="fill:#BD8423;" d="M310.042,149.614c0.04-0.381,0.085-0.763,0.134-1.146c-4.926,0.368-9.705-0.393-13.862-2.647
					c-0.376,2.46-0.892,4.885-1.75,7.322c-1.698,4.82-1.792,11.483-1.457,16.547c0.021,0.313,0.068,0.669,0.326,0.848
					c0.142,0.099,0.322,0.123,0.495,0.143c6.649,0.796,13.118,2.867,19.849,3.05c-3.424-3.444-3.672-6.787-4.022-11.663
					C309.457,157.926,309.606,153.742,310.042,149.614z"/>
			</g>
			<path style="fill:#C9A025;" d="M319.886,141.413c-0.055-0.001-0.109-0.002-0.161-0.003c-0.396-0.005-0.8-0.01-1.178,0.109
				c-0.494,0.155-0.899,0.506-1.288,0.849c0.517-0.455,2.792,0.152,3.316,0.423c0.508,0.263,1.628,0.898,1.371-0.339
				C321.75,141.509,320.684,141.429,319.886,141.413z"/>
			<path style="fill:#301E14;" d="M320.953,146.064c0,0.758-0.341,1.372-0.762,1.372c-0.421,0-0.762-0.615-0.762-1.372
				s0.341-1.372,0.762-1.372C320.612,144.692,320.953,145.306,320.953,146.064z"/>
			<path style="fill:#FFB980;" d="M325.289,152.211c0.078,0.189,0.147,0.435-0.002,0.576c-0.076,0.072-0.188,0.091-0.292,0.104
				c-0.872,0.112-1.755,0.136-2.632,0.071c-0.121-1.436-0.242-2.878-0.154-4.316c0.081-1.312,0.628-2.254,1.334-0.644
				C324.154,149.391,324.708,150.809,325.289,152.211z"/>
			<path style="fill:#FF7657;" d="M320.716,154.463c-0.682,0.345-1.29,0.632-2.062,0.348c-0.617-0.226-1.031-0.715-1.335-1.281
				c-0.22-0.41-0.855-0.127-0.741,0.313c0.508,1.95,3.241,2.907,4.731,1.388C321.709,154.824,321.205,154.215,320.716,154.463z"/>
			<path style="fill:#FFFFFF;" d="M324.878,145.895c-0.266-0.35-0.56-0.354-0.978-0.372c-0.259-0.011-0.514-0.014-0.768-0.001
				c0.046-1.341-0.215-2.619-0.801-3.342c-1.034-1.276-2.523-0.823-3.29,0.441c-0.343,0.566-0.583,1.228-0.748,1.925
				c-0.05-0.097-0.144-0.172-0.29-0.197c-3.518-0.597-7.242-1.731-10.815-1.75c-0.308-0.002-0.336,0.414-0.069,0.512
				c3.322,1.221,7.164,1.462,10.638,2.131c0.172,0.033,0.31-0.027,0.41-0.123c-0.253,1.525-0.128,3.177,0.301,4.486
				c0.02,0.061,0.061,0.105,0.11,0.137c-0.04,0.183,0.013,0.386,0.195,0.473c2.451,1.168,3.908-1.184,4.273-3.727
				c0.256,0.052,0.518,0.083,0.777,0.108c0.379,0.037,0.699,0.099,0.989-0.192C324.93,146.285,324.989,146.041,324.878,145.895z
				 M321.942,146.711c-0.358,1.946-1.203,4.307-2.586,2.235c-0.759-1.137-0.426-3.544-0.091-4.764
				c0.111-0.403,0.266-0.789,0.465-1.158c0.28-0.733,0.728-0.768,1.345-0.105c1.152,0.548,1.034,0.819,1.065,1.968
				C322.15,145.225,322.085,145.935,321.942,146.711z"/>
		</g>
	</g>
</g>
</svg>
